{"title":"Where.the.Devil.Hides.2014.720p.WEB-DL.H264.AAC.Mp4.Raven","uid":11189831,"size":771061997,"categoryP":"video","categoryS":"movies","magnet":"?xt=urn:btih:a4921aa2b78d06db87c780478d21b41187c9293b&amp;dn=Where.the.Devil.Hides.2014.720p.WEB-DL.H264.AAC.Mp4.Raven&amp;tr=udp%3A%2F%2Ftracker.openbittorrent.com%3A80&amp;tr=udp%3A%2F%2Fopen.demonii.com%3A1337&amp;tr=udp%3A%2F%2Ftracker.coppersurfer.tk%3A6969&amp;tr=udp%3A%2F%2Fexodus.desync.com%3A6969","seeders":2,"leechers":0,"uploader":"Raven1969","files":-1,"time":1412975582,"description":"Where.the.Devil.Hides.2014.720p.WEB-DL.H264.AAC.Mp4.Raven.\n\n\n\n\n\nRuntime:\n86 Mins\n\n\n\nScreen images:\n\n\n\n\n\n\n\n\n\n\n\n\n\n\n\nIMDB:\n\n\n\n &lt;a href=&quot;\nhttp://www.imdb.com/title/tt2290739&quot; rel=&quot;nofollow&quot; target=&quot;_NEW&quot;&gt;\nhttp://www.imdb.com/title/tt2290739&lt;/a&gt;\n\n\n\n\nIMDB Rating:  5.7\n\n\n\n\nStoryline:\n\nWhen young girls start to go missing within a religious cult, older followers fear a long-told prophecy while the younger members suspect abusive elders are killing them off.\n\n\n\n\nGeneral\nFormat                                   : MPEG-4\nFormat profile                           : Base Media\nCodec ID                                 : isom\nFile size                                : 732 MiB\nDuration                                 : 1h 25mn\nOverall bit rate mode                    : Variable\nOverall bit rate                         : 1 197 Kbps\nEncoded date                             : UTC 2014-10-10 18:42:32\nTagged date                              : UTC 2014-10-10 18:42:32\nWriting application                      : My MP4Box GUI 0.6.0.6 &lt;http://my-mp4box-gui.zymichost.com&gt;\n\nVideo\nID                                       : 1\nFormat                                   : AVC\nFormat/Info                              : Advanced Video Codec\nFormat profile                           : &lt;a class=&quot;__cf_email__&quot; href=&quot;/cdn-cgi/l/email-protection&quot; data-cfemail=&quot;eca4858b84aca0d8c2dc&quot;&gt;[email&amp;#160;protected]&lt;/a&gt;&lt;script cf-hash='f9e31' type=&quot;text/javascript&quot;&gt;\n/* &lt;![CDATA[ */!function(){try{var t=&quot;currentScript&quot;in document?document.currentScript:function(){for(var t=document.getElementsByTagName(&quot;script&quot;),e=t.length;e--;)if(t[e].getAttribute(&quot;cf-hash&quot;))return t[e]}();if(t&amp;&amp;t.previousSibling){var e,r,n,i,c=t.previousSibling,a=c.getAttribute(&quot;data-cfemail&quot;);if(a){for(e=&quot;&quot;,r=parseInt(a.substr(0,2),16),n=2;a.length-n;n+=2)i=parseInt(a.substr(n,2),16)^r,e+=String.fromCharCode(i);e=document.createTextNode(e),c.parentNode.replaceChild(e,c)}}}catch(u){}}();/* ]]&gt; */&lt;/script&gt;\nFormat settings, CABAC                   : Yes\nFormat settings, ReFrames                : 5 frames\nCodec ID                                 : avc1\nCodec ID/Info                            : Advanced Video Coding\nDuration                                 : 1h 25mn\nBit rate                                 : 1 100 Kbps\nMaximum bit rate                         : 9 650 Kbps\nWidth                                    : 1 280 pixels\nHeight                                   : 532 pixels\nDisplay aspect ratio                     : 2.40:1\nFrame rate mode                          : Constant\nFrame rate                               : 24.000 fps\nColor space                              : YUV\nChroma subsampling                       : 4:2:0\nBit depth                                : 8 bits\nScan type                                : Progressive\nBits/(Pixel*Frame)                       : 0.067\nStream size                              : 672 MiB (92%)\nTitle                                    : The.Devils.Hand.2014.720p.WEB-DL.H264.AAC.Raven.mp4\nWriting library                          : x264 core 142 \nLanguage                                 : English\nEncoded date                             : UTC 2014-10-10 18:35:32\nTagged date                              : UTC 2014-10-10 18:42:56\n\nAudio\nID                                       : 3\nFormat                                   : AAC\nFormat/Info                              : Advanced Audio Codec\nFormat profile                           : LC\nCodec ID                                 : 40\nDuration                                 : 1h 25mn\nBit rate mode                            : Variable\nBit rate                                 : 93.4 Kbps\nMaximum bit rate                         : 99.8 Kbps\nChannel(s)                               : 2 channels\nChannel positions                        : Front: L R\nSampling rate                            : 48.0 KHz\nCompression mode                         : Lossy\nStream size                              : 57.1 MiB (8%)\nTitle                                    : Audio AAC LC 96kb.aac\nEncoded date                             : UTC 2014-10-10 18:42:34\nTagged date                              : UTC 2014-10-10 18:42:56\n\nMenu\nID                                       : 2\nCodec ID                                 : text\nDuration                                 : 1s 0ms\nTitle                                    : The.Devils.Hand.2014.720p.WEB-DL.H264.AAC.Raven.mp4\nEncoded date                             : UTC 2014-10-10 18:37:18\nTagged date                              : UTC 2014-10-10 18:42:56\n\n\n\n\n\nPLEASE  SEED FOR AS LONG AS POSSIBLE TO KEEP THE TORRENT ALIVE :-)","torrent":{"xt":"urn:btih:a4921aa2b78d06db87c780478d21b41187c9293b","amp;dn":"Where.the.Devil.Hides.2014.720p.WEB-DL.H264.AAC.Mp4.Raven","amp;tr":["udp%3A%2F%2Ftracker.openbittorrent.com%3A80","udp%3A%2F%2Fopen.demonii.com%3A1337","udp%3A%2F%2Ftracker.coppersurfer.tk%3A6969","udp%3A%2F%2Fexodus.desync.com%3A6969"],"infoHash":"a4921aa2b78d06db87c780478d21b41187c9293b","infoHashBuffer":{"type":"Buffer","data":[164,146,26,162,183,141,6,219,135,199,128,71,141,33,180,17,135,201,41,59]},"announce":[],"urlList":[]}}